<?xml version="1.0" encoding="UTF-8" standalone="no"?>
<svg
   width="200"
   height="200"
   viewBox="0 0 200 200"
   version="1.1"
   id="svg700"
   xmlns="http://www.w3.org/2000/svg"
   xmlns:svg="http://www.w3.org/2000/svg">
  <defs
     id="defs692" />
  <path
     style="display:inline;opacity:0.999;fill:#d7621d;fill-opacity:1;stroke:none;stroke-width:4.87179;stroke-miterlimit:0;stroke-dasharray:none;stroke-opacity:1"
     width="185.1282"
     height="185.1282"
     x="7.4358978"
     y="7.4358978"
     d="M 27.435898,7.4358978 H 172.5641 a 20,20 45 0 1 20,20.0000002 V 172.5641 a 20,20 135 0 1 -20,20 H 27.435898 a 20,20 45 0 1 -20.0000002,-20 V 27.435898 A 20,20 135 0 1 27.435898,7.4358978 Z"
     id="path696" />
  <path
     style="display:inline;fill:#ffffff;stroke:#000000;stroke-width:0;stroke-miterlimit:0"
     d="M 100 30 A 9.999999 9.999999 0 0 0 90 40 L 75 40 L 75 45 L 50 45 L 50 170 L 150 170 L 150 45 L 125 45 L 125 40 L 110 40 A 9.999999 9.999999 0 0 0 100 30 z M 60 55 L 75 55 L 75 60 L 125 60 L 125 55 L 140 55 L 140 160 L 60 160 L 60 55 z M 70 70 L 70 85 L 130 85 L 130 70 L 70 70 z M 70 100 L 70 115 L 130 115 L 130 100 L 70 100 z M 70 130 L 70 145 L 130 145 L 130 130 L 70 130 z "
     id="path698" />
</svg>
